# xmcd
#
# Track frame offsets: 
#        150
#        18742
#        38755
#        62587
#        91972
#        111542
#        130860
#        148785
#        166777
#        178872
#        201425
#
# Disc length: 2904 seconds
#
# Revision: 2
# Processed by: cddbd v1.5.2PL0 Copyright (c) Steve Scherf et al.
# Submitted via: ExactAudioCopy v1.0b3
#
DISCID=9f0b560b
DTITLE=Craig Erickson - Roadhouse Stomp!
DYEAR=1992
DGENRE=Blues-Rock
TTITLE0=Heartbreak Train
TTITLE1=Blues Avenue
TTITLE2=Overtime
TTITLE3=The Loneliest Hour
TTITLE4=River Song
TTITLE5=Catch That  Plane
TTITLE6=Midnight Highway
TTITLE7=The storm
TTITLE8=Tearin' It Up
TTITLE9=Starry Sea
TTITLE10=Tell Me The Truth
EXTD=
EXTT0=
EXTT1=
EXTT2=
EXTT3=
EXTT4=
EXTT5=
EXTT6=
EXTT7=
EXTT8=
EXTT9=
EXTT10=
PLAYORDER=
